<svg viewBox="0 0 640 400" data-background-color="#ff001d" preserveAspectRatio="xMidYMid meet"
    height="400" width="640" xmlns="http://www.w3.org/2000/svg"
    xmlns:xlink="http://www.w3.org/1999/xlink">
    <!-- <rect width="640" height="400" x="0" y="0" opacity="1" fill="#ff001d"
        data-fill-palette-color="background" id="background"></rect> -->
    <g id="tight-bounds" transform="matrix(1,0,0,1,122.24000000000001,135.23596181117938)">
        <svg viewBox="0 0 395.52 129.52807637764127" height="129.52807637764127" width="395.52">
            <g>
                <svg viewBox="0 0 634.7417704126983 207.87034920634918" height="129.52807637764127"
                    width="395.52">
                    <g transform="matrix(1,0,0,1,239.22177041269836,28.7288253968254)">
                        <svg viewBox="0 0 395.52 150.41269841269838" height="150.41269841269838"
                            width="395.52">
                            <g id="textblocktransform">
                                <svg viewBox="0 0 395.52 150.41269841269838"
                                    height="150.41269841269838" width="395.52" id="textblock">
                                    <g>
                                        <svg viewBox="0 0 395.52 150.41269841269838"
                                            height="150.41269841269838" width="395.52">
                                            <g transform="matrix(1,0,0,1,0,0)">
                                                <svg width="395.52"
                                                    viewBox="5 -28.75 75.5999984741211 28.75"
                                                    height="150.41269841269838"
                                                    data-palette-color="#f0f0f0">
                                                    <path
                                                        d="M5-28.75L5-28.75 21.2-28.75 21.2-23.1 11.5-23.1 11.5-17.2 21.2-17.2 21.2-11.35 11.5-11.35 11.5 0 5 0 5-28.75ZM39.65-14.75L39.65-14.75 39.65-25.3 33.8-28.75 23.45-28.75 23.45-23.1 33.15-23.1 33.15-17.2 23.45-17.2 23.45-11.35 33.8-11.35 39.65-14.75ZM46.15 0L46.15-28.75 52.45-28.75 52.45-17.2 55.25-17.2 55.25-11.5 52.45-11.5 52.45 0 46.15 0ZM80.6-2.85L62.15-14.35 80.6-25.9 74.7-28.75 57.1-17.2 57.1-11.5 74.7 0 80.6-2.85Z"
                                                        opacity="1" transform="matrix(1,0,0,1,0,0)"
                                                        fill="#f0f0f0" class="undefined-text-0"
                                                        data-fill-palette-color="primary"
                                                        id="text-0"></path>
                                                </svg>
                                            </g>
                                        </svg>
                                    </g>
                                </svg>
                            </g>
                        </svg>
                    </g>
                    <g>
                        <svg viewBox="0 0 203.71294222222218 207.87034920634918"
                            height="207.87034920634918" width="203.71294222222218">
                            <g>
                                <svg xmlns="http://www.w3.org/2000/svg"
                                    xmlns:xlink="http://www.w3.org/1999/xlink" version="1.1" x="0"
                                    y="0" viewBox="0 0 98 100" enable-background="new 0 0 100 100"
                                    xml:space="preserve" height="207.87034920634918"
                                    width="203.71294222222218" class="icon-icon-0"
                                    data-fill-palette-color="accent" id="icon-0"><g fill="#f0f0f0" data-fill-palette-color="accent"><circle cx="49.494" cy="6.603" r="2.128" fill="#f0f0f0" data-fill-palette-color="accent"></circle><path d="M18.267 34.851l6.123-7.465c0.518-0.63 0.425-1.56-0.204-2.076-0.629-0.517-1.56-0.424-2.076 0.204l-6.972 8.499c-0.481 0.586-0.439 1.443 0.098 1.979l7.593 7.591c0.288 0.289 0.665 0.433 1.042 0.433 0.378 0 0.755-0.144 1.043-0.433 0.576-0.576 0.576-1.51 0-2.086L18.267 34.851z" fill="#f0f0f0" data-fill-palette-color="accent"></path><path d="M44.093 32.998L36.5 25.406c-0.576-0.576-1.509-0.576-2.086 0-0.576 0.577-0.576 1.511 0 2.087l6.647 6.646-6.123 7.465c-0.516 0.63-0.424 1.56 0.206 2.077 0.274 0.225 0.605 0.334 0.935 0.334 0.427 0 0.851-0.185 1.142-0.54l6.97-8.499C44.671 34.39 44.63 33.534 44.093 32.998z" fill="#f0f0f0" data-fill-palette-color="accent"></path><path d="M88.568 0H9.432C4.491 0 0 4.02 0 8.96v55.608C0 69.51 4.491 74 9.432 74h31.279c0.159 2 0.311 8.268-0.323 10.369-1.163 1.729-13.49 5.365-24.164 7.854C15.56 92.379 15 92.854 15 93.537v4.992c0 0.813 0.835 1.471 1.647 1.471h64.707C82.166 100 83 99.342 83 98.529v-4.992c0-0.684-0.559-1.277-1.225-1.434-10.732-2.486-23.082-6.008-24.202-7.625C56.896 82.277 56.925 76 57.039 74h31.529C93.508 74 98 69.51 98 64.568V8.96C98 4.02 93.508 0 88.568 0zM80 94.703V97H18v-2.298c11-2.638 24.097-6.121 25.095-9.362C43.963 82.512 43.796 76 43.657 74h10.438c-0.104 2-0.188 8.514 0.682 11.343C55.773 88.583 69 92.064 80 94.703zM95 64.98c0 3.326-3.695 6.02-7.02 6.02H9.02C5.695 71 3 68.307 3 64.98V9.019C3 5.695 5.695 3 9.02 3h78.96C91.305 3 95 5.695 95 9.019V64.98z" fill="#f0f0f0" data-fill-palette-color="accent"></path><path d="M88.529 12H9.471C8.659 12 8 12.659 8 13.471v44.058C8 58.342 8.659 59 9.471 59h79.058C89.342 59 90 58.342 90 57.529V13.471C90 12.659 89.342 12 88.529 12zM11 15h37v41H11V15zM87 56H51V15h36V56z" fill="#f0f0f0" data-fill-palette-color="accent"></path><path d="M54.5 36h29c0.828 0 1.5-0.671 1.5-1.5v-16c0-0.829-0.672-1.5-1.5-1.5h-29c-0.828 0-1.5 0.671-1.5 1.5v16C53 35.329 53.672 36 54.5 36zM56 20h26v13H56V20z" fill="#f0f0f0" data-fill-palette-color="accent"></path><path d="M83 39H55c-0.828 0-1.5 0.671-1.5 1.5S54.172 42 55 42h28c0.828 0 1.5-0.671 1.5-1.5S83.828 39 83 39z" fill="#f0f0f0" data-fill-palette-color="accent"></path><path d="M83 45H55c-0.828 0-1.5 0.671-1.5 1.5S54.172 48 55 48h28c0.828 0 1.5-0.671 1.5-1.5S83.828 45 83 45z" fill="#f0f0f0" data-fill-palette-color="accent"></path><path d="M83 51H55c-0.828 0-1.5 0.672-1.5 1.5S54.172 54 55 54h28c0.828 0 1.5-0.672 1.5-1.5S83.828 51 83 51z" fill="#f0f0f0" data-fill-palette-color="accent"></path></g></svg>
                            </g>
                        </svg>
                    </g>
                </svg>
            </g>
            <defs></defs>
        </svg>
        <rect width="395.52" height="129.52807637764127" fill="none" stroke="none"
            visibility="hidden"></rect>
    </g>
</svg>